<svg id="圖層_1" data-name="圖層 1" xmlns="http://www.w3.org/2000/svg" viewBox="0 0 62.22 59.19"><defs><style>.cls-1{fill:#040000;}</style></defs><path class="cls-1" d="M62.22,29.83c0,14.7-11.11,26.93-25.77,29.36V39h8.16l.13-.83,1.31-8.11.18-1.14H36.45V25.47a7.83,7.83,0,0,1,.84-3.93,2.77,2.77,0,0,1,2.59-1.43h6.26V11.17l-.86-.11H45.2a49,49,0,0,0-6.63-.38c-4,0-7.38,1-9.73,3.37s-3.52,5.85-3.52,10.47v4.4H17.38V39h7.94V59.11C10.88,56.5,0,44.37,0,29.83,0,13.39,13.89,0,31.11,0S62.22,13.39,62.22,29.83Z"/></svg>